HIERARCHY
ROOT Hips
{
	OFFSET -0.179506 -22.333345 2.821913
	CHANNELS 6 Xposition Yposition Zposition Zrotation Yrotation Xrotation 
	JOINT LeftUpLeg
	{
		OFFSET 6.951974 -9.140623 -0.681533
		CHANNELS 3 Zrotation Yrotation Xrotation
		JOINT LeftLeg
		{
			OFFSET 3.427654 -37.519855 -0.449580
			CHANNELS 3 Zrotation Yrotation Xrotation
			JOINT LeftFoot
			{
				OFFSET -1.359570 -39.796059 -4.369333
				CHANNELS 3 Zrotation Yrotation Xrotation
				JOINT LeftToe
				{
					OFFSET 2.635814 -5.579078 11.928840
					CHANNELS 3 Zrotation Yrotation Xrotation
					End Site
					{
						OFFSET 0.000000 0.000000 0.000000
					}
				}
			}
		}
	}
	JOINT RightUpLeg
	{
		OFFSET -6.767048 -9.052170 -0.431982
		CHANNELS 3 Zrotation Yrotation Xrotation
		JOINT RightLeg
		{
			OFFSET -3.829005 -38.256897 -0.885003
			CHANNELS 3 Zrotation Yrotation Xrotation
			JOINT RightFoot
			{
				OFFSET 1.577377 -39.841461 -4.231180
				CHANNELS 3 Zrotation Yrotation Xrotation
				JOINT RightToe
				{
					OFFSET -2.537174 -4.814398 12.334795
					CHANNELS 3 Zrotation Yrotation Xrotation
					End Site
					{
						OFFSET 0.000000 0.000000 0.000000
					}
				}
			}
		}
	}
	JOINT Spine
	{
		OFFSET -0.253288 10.896323 -2.669631
		CHANNELS 3 Zrotation Yrotation Xrotation
		JOINT Spine1
		{
			OFFSET 0.548704 13.518043 0.109247
			CHANNELS 3 Zrotation Yrotation Xrotation
			JOINT Spine2
			{
				OFFSET 0.145701 5.292222 2.542457
				CHANNELS 3 Zrotation Yrotation Xrotation
				JOINT Neck
				{
					OFFSET -0.277840 21.387037 -4.285703
					CHANNELS 3 Zrotation Yrotation Xrotation
					JOINT Head
					{
						OFFSET 0.515184 6.496960 5.134897
						CHANNELS 3 Zrotation Yrotation Xrotation
						End Site
						{
							OFFSET 0.000000 0.000000 0.000000
						}
					}
				}
				JOINT LeftShoulder
				{
					OFFSET 7.884473 12.174932 -3.408961
					CHANNELS 3 Zrotation Yrotation Xrotation
					JOINT LeftArm
					{
						OFFSET 9.097692 3.046888 -0.886815
						CHANNELS 3 Zrotation Yrotation Xrotation
						JOINT LeftForeArm
						{
							OFFSET 25.961220 -1.277207 -2.745643
							CHANNELS 3 Zrotation Yrotation Xrotation
							JOINT LeftHand
							{
								OFFSET 24.923361 0.898606 -0.117091
								CHANNELS 3 Zrotation Yrotation Xrotation
								End Site
								{
									OFFSET 0.000000 0.000000 0.000000
								}
							}
						}
					}
				}
				JOINT RightShoulder
				{
					OFFSET -8.175920 11.883285 -3.861528
					CHANNELS 3 Zrotation Yrotation Xrotation
					JOINT RightArm
					{
						OFFSET -9.601238 3.255117 -0.914307
						CHANNELS 3 Zrotation Yrotation Xrotation
						JOINT RightForeArm
						{
							OFFSET -25.374195 -1.332924 -2.140099
							CHANNELS 3 Zrotation Yrotation Xrotation
							JOINT RightHand
							{
								OFFSET -25.529810 0.777228 -0.555919
								CHANNELS 3 Zrotation Yrotation Xrotation
								End Site
								{
									OFFSET 0.000000 0.000000 0.000000
								}
							}
						}
					}
				}
			}
		}
	}
}
MOTION
Frames: 17
Frame Time: 0.033333
125.520912 92.835030 94.888817 141.856114 2.093895 82.195704 5.887924 0.021255 -0.627177 -3.620316 0.246286 48.878165 -11.003634 3.801152 -2.728791 nan nan nan 3.122091 -2.584050 -2.477862 1.187125 0.123050 17.837850 9.403031 4.617938 -2.723071 nan nan nan -0.571981 0.822416 10.543296 3.200733 -3.733671 -1.014546 2.189305 -2.270368 0.618428 1.278746 -0.776644 7.547140 5.219782 -1.620426 7.378091 -14.855136 5.253540 1.164192 -60.645601 -14.853887 1.929416 21.121939 -34.910466 -23.700098 6.571194 -18.045007 -29.685669 13.762670 -9.430979 0.681640 62.436845 -5.069894 4.412666 -10.844685 27.840365 -6.659939 3.080107 10.485711 -22.653892 
125.142014 92.468651 94.840530 141.792823 2.191525 82.124405 6.029608 0.092045 1.064656 -4.087803 -0.328098 48.394777 -11.396609 3.747221 -2.267836 nan nan nan 3.122380 -2.301573 -2.796753 1.231168 -0.099800 17.847015 9.532364 4.602047 -2.232516 nan nan nan -0.526692 0.428581 10.122078 3.299228 -3.746102 -0.668094 2.242204 -2.397591 0.523880 1.219868 -0.680092 7.657100 4.997402 -1.354619 7.535362 -15.022917 5.180378 1.223340 -60.748488 -15.246571 1.763774 21.785744 -34.828928 -24.330412 6.252254 -18.469211 -29.659023 13.833955 -9.587803 0.706448 62.432126 -5.301716 4.189687 -11.157982 27.403715 -6.999693 3.315641 10.217357 -22.158633 
124.743713 92.075226 94.769402 141.784123 2.358836 82.140784 6.258666 0.219907 2.531898 -4.526323 -0.983611 47.962149 -11.750829 3.703884 -1.726165 nan nan nan 3.177360 -2.033368 -3.335806 1.344102 -0.331816 18.024656 9.349699 4.452319 -1.981990 nan nan nan -0.460523 -0.021596 9.667111 3.415239 -3.764731 -0.362249 2.324351 -2.560777 0.398521 1.129405 -0.523301 7.780225 4.846894 -1.021274 7.614813 -15.048735 5.085732 1.348799 -61.103592 -15.631855 1.635401 22.566582 -34.736935 -25.301296 6.051450 -18.710798 -29.979442 13.766911 -9.707942 0.819752 62.435691 -5.460898 3.978451 -11.136830 26.997773 -7.158915 3.524339 9.996003 -22.390382 
124.320427 91.662071 94.679436 141.766902 2.485519 82.297531 6.361344 0.245270 3.833215 -4.871433 -1.606480 47.414336 -11.987526 3.621588 -0.904623 nan nan nan 3.204766 -1.715595 -4.116094 1.448233 -0.532296 18.332546 9.177808 4.279638 -1.864515 nan nan nan -0.403213 -0.511187 9.175500 3.512347 -3.781030 -0.159299 2.383132 -2.734542 0.238868 1.033635 -0.375254 7.969942 4.670741 -0.504850 7.583679 -15.044301 5.111684 1.459324 -61.504928 -15.942969 1.720326 23.377649 -34.672254 -26.129898 6.358231 -18.659436 -30.199258 13.695478 -9.812920 0.960382 62.426738 -5.518842 3.849448 -11.116428 26.507523 -7.451133 3.750878 9.770521 -22.808496 
123.908051 91.237869 94.596161 141.692734 2.656647 82.408751 6.531156 0.255281 5.188125 -5.311092 -2.259493 46.768042 -12.280773 3.550324 0.040031 nan nan nan 3.353649 -1.396960 -4.825351 1.466437 -0.659814 18.573501 9.100614 4.027781 -1.615948 nan nan nan -0.301123 -0.987746 8.711614 3.618863 -3.802224 0.109061 2.425344 -2.851396 0.053908 0.926684 -0.204423 8.133498 4.533673 0.010747 7.561385 -15.007734 5.092768 1.545535 -61.823727 -16.193979 1.760882 23.884868 -34.748796 -26.908698 6.401920 -18.549531 -30.395203 13.678418 -9.949711 1.034866 62.454464 -5.605609 3.633286 -11.351921 26.115213 -7.895220 4.229371 9.490605 -22.080161 
123.478600 90.836052 94.519806 141.699389 2.784079 82.344334 6.713515 0.537236 6.684481 -5.663909 -3.186531 46.021654 -12.768512 3.282797 1.112760 nan nan nan 3.376550 -1.214795 -5.315978 1.502688 -0.894184 18.810183 9.011871 3.978424 -1.297353 nan nan nan -0.253718 -1.481200 8.416574 3.718664 -3.871940 0.485129 2.536364 -2.991342 -0.208282 0.781499 -0.030506 8.311399 4.376421 0.462647 7.593218 -15.003231 4.889822 1.694881 -62.097503 -16.381409 1.662851 24.323545 -34.730058 -27.849703 5.936702 -18.903948 -30.845288 13.571844 -9.928206 1.158734 62.566345 -5.785195 3.351179 -11.791367 25.922698 -8.373162 4.865746 9.483308 -21.206434 
123.055679 90.424080 94.436775 141.736427 2.936076 82.384666 6.977737 0.827637 8.040583 -5.919744 -4.098392 45.162058 -13.438898 2.823310 2.333152 nan nan nan 3.428426 -0.982689 -5.944269 1.500757 -1.204277 19.082905 9.003010 3.950772 -0.993378 nan nan nan -0.270444 -2.011486 8.061616 3.881790 -3.959650 0.823950 2.685731 -3.199648 -0.487443 0.737274 0.202269 8.321088 4.127293 0.827794 7.767675 -15.027628 4.969520 1.840786 -62.460500 -16.633043 1.537029 24.836005 -34.628212 -28.429071 5.335927 -19.284959 -31.203334 13.428516 -10.050892 1.275167 62.627297 -5.866358 3.271217 -12.190424 25.808838 -8.621542 5.069828 9.631671 -20.559533 
122.637215 90.009987 94.343346 141.782467 3.083742 82.458695 7.202117 1.032385 9.365353 -6.129444 -4.993082 44.197979 -14.068272 2.448959 3.469376 nan nan nan 3.480294 -0.750932 -6.591172 1.493971 -1.473959 19.324672 8.963105 3.899380 -0.707882 nan nan nan -0.289703 -2.477872 7.659631 4.079376 -4.047576 1.100626 2.764091 -3.470499 -0.651641 0.861192 0.602261 8.286796 3.802733 1.065763 7.979324 -15.034270 5.265510 2.116060 -62.873868 -17.091178 1.545329 25.437425 -34.573327 -28.888021 5.076793 -19.513200 -31.795744 13.537227 -10.467423 1.340065 62.454920 -5.703705 3.408846 -12.382635 25.575633 -8.599291 4.838018 9.754144 -20.332025 
122.186241 89.588387 94.245895 141.890094 3.204618 82.581028 7.293651 1.133580 10.545969 -6.397937 -5.960696 43.253667 -14.451161 2.261472 4.215108 nan nan nan 3.465147 -0.528144 -7.312025 1.559129 -1.700040 19.595317 8.869608 3.697616 -0.423317 nan nan nan -0.292091 -2.957294 7.178076 4.244811 -4.187432 1.435528 2.811960 -3.733604 -0.774885 0.924014 0.920845 8.231727 3.512840 1.428189 8.105045 -15.087941 5.488297 2.237813 -63.108817 -17.262466 1.704512 25.904078 -34.740773 -29.158842 5.647753 -19.484506 -32.235350 13.661753 -10.746482 1.350801 62.252545 -5.574003 3.521315 -12.389329 25.319150 -8.842136 4.300225 9.766029 -20.623812 
121.701424 89.137856 94.154739 142.022292 3.327856 82.774717 7.390217 1.347907 11.481939 -6.644567 -7.088201 42.406864 -14.681997 2.001288 4.640368 nan nan nan 3.407235 -0.347790 -8.165427 1.686281 -1.890429 19.887057 8.826616 3.505051 -0.078249 nan nan nan -0.253027 -3.458592 6.595395 4.385203 -4.352854 1.951962 2.868391 -3.923349 -1.011576 0.876351 1.145746 8.232794 3.308085 1.923261 8.073007 -15.139274 5.528856 2.296381 -63.227102 -17.350432 1.699245 26.257314 -34.822286 -29.343069 5.408287 -19.315870 -31.956940 13.785830 -10.878340 1.355171 62.118099 -5.560714 3.386719 -12.550501 25.257228 -9.205720 4.782285 9.576298 -20.406745 
121.204498 88.670181 94.069191 142.268068 3.485728 82.917632 7.545876 1.576828 12.419770 -6.794442 -8.337149 41.468053 -14.890846 1.728234 4.666001 nan nan nan 3.355285 -0.214271 -8.965323 1.783508 -2.186316 20.177296 8.931215 3.320967 0.238430 nan nan nan -0.234573 -3.995519 6.281986 4.554449 -4.490344 2.153798 2.965670 -4.118881 -1.174060 0.888731 1.322705 8.116945 3.072077 2.154122 8.266301 -15.145029 5.627417 2.332554 -63.458859 -17.638809 1.852048 26.427280 -34.584753 -29.372896 4.976520 -19.438499 -32.012828 13.935502 -11.182638 1.210181 61.942333 -5.590134 3.352432 -12.715106 25.244831 -9.486083 5.423197 9.601419 -20.237359 
120.696083 88.212791 93.993164 142.531797 3.639278 83.004046 7.714966 1.712068 13.421975 -6.943670 -9.458070 40.367725 -14.946391 1.474494 4.506603 nan nan nan 3.277559 -0.135225 -9.650895 1.920572 -2.409554 20.377797 8.977941 3.090961 0.592197 nan nan nan -0.231260 -4.452766 6.047492 4.744700 -4.598792 2.287534 3.092759 -4.387501 -1.262705 0.888184 1.431595 7.989283 2.808556 2.369867 8.464686 -15.227739 5.777815 2.344088 -63.763727 -18.008647 2.108427 26.459377 -34.405508 -29.495145 5.544545 -19.432349 -32.424427 14.144879 -11.594086 1.029160 61.604187 -5.580301 3.448723 -12.702591 25.337097 -9.648832 5.603973 9.935709 -20.271327 
120.178604 87.769463 93.919693 142.862462 3.741592 83.111624 7.781260 1.830215 14.328604 -6.936177 -10.565963 39.218072 -14.972309 1.212639 4.277221 nan nan nan 3.152121 -0.157083 -10.261622 1.969947 -2.655883 20.409880 9.121646 2.928601 1.130437 nan nan nan -0.147476 -4.898775 5.883774 4.813818 -4.774994 2.285445 3.150607 -4.658932 -1.430618 0.861310 1.598542 8.019563 2.615775 2.745856 8.658822 -15.313607 5.747809 2.425746 -63.861453 -18.145585 2.180382 26.453491 -34.248481 -29.682717 5.910963 -19.396648 -32.278593 14.257922 -11.837868 0.920020 61.427229 -5.690493 3.378687 -12.579032 25.368898 -9.921728 5.624502 10.290707 -20.201701 
119.648956 87.308022 93.839211 143.280223 3.871671 83.190228 7.848367 1.789598 15.202329 -6.844316 -11.609914 37.954266 -15.228676 0.987126 4.223579 nan nan nan 3.050685 -0.115975 -10.805207 1.979440 -2.987166 20.361924 9.347815 2.699483 1.772718 nan nan nan -0.077412 -5.311344 5.785302 4.912119 -5.007003 2.376611 3.265326 -4.962189 -1.697531 0.816488 1.799204 7.907087 2.425805 3.019035 8.912701 -15.393802 5.497375 2.648946 -63.857596 -18.203969 2.004627 26.572990 -33.968957 -29.642671 4.669037 -19.554369 -31.539409 14.259373 -11.934826 0.886965 61.399000 -5.942661 3.237383 -12.641153 25.744259 -10.157184 5.786540 10.344407 -19.937273 
119.084442 86.822929 93.750343 143.623451 3.947954 83.201865 7.825801 1.706459 16.104728 -6.646196 -12.475986 36.567974 -15.605986 0.802957 4.393032 nan nan nan 2.874838 0.046292 -11.342305 1.931031 -3.446224 20.379379 9.605604 2.561029 2.342831 nan nan nan -0.106351 -5.685701 5.771119 5.043078 -5.249431 2.570387 3.406391 -5.216071 -1.864488 0.821018 2.106447 7.646290 2.195839 3.054352 8.966110 -15.475792 5.336877 2.793589 -63.836651 -18.378930 1.888876 26.723128 -33.615757 -29.351344 2.905100 -20.080169 -30.757948 14.294470 -12.130549 0.724684 61.436900 -6.019734 3.234994 -12.820765 26.132490 -10.271750 6.154968 10.299959 -19.877496 
118.494537 86.320930 93.672455 143.946616 4.003665 83.244418 7.813729 1.782030 16.830447 -6.430550 -13.407285 35.220067 -15.774545 0.699255 4.631271 nan nan nan 2.692809 0.096512 -11.930920 1.946318 -3.662149 20.383043 9.719992 2.317863 2.855950 nan nan nan -0.199343 -6.053330 5.624399 5.166333 -5.480107 2.740804 3.539781 -5.397775 -1.832932 0.769843 2.332073 7.588053 2.109522 3.168326 8.786882 -15.414646 5.169525 2.982624 -63.951158 -18.665565 1.953914 26.644007 -33.333239 -28.984954 2.547464 -20.079143 -30.761803 14.364050 -12.280525 0.619344 61.514725 -5.876768 3.199879 -12.925220 26.155924 -10.604596 6.316207 10.421550 -20.175891 
117.906601 85.797188 93.602112 144.384561 4.056620 83.319094 7.786546 1.745554 17.440916 -6.158338 -14.357887 33.760975 -15.850410 0.714982 4.919404 nan nan nan 2.496205 0.021120 -12.488285 2.024266 -3.779000 20.274730 9.843106 1.958044 3.365458 nan nan nan -0.277301 -6.355278 5.617526 5.296459 -5.686736 2.715899 3.638486 -5.678714 -1.863563 0.772065 2.428673 7.450090 1.958161 3.246622 8.892287 -15.294491 5.104447 3.091962 -64.100954 -18.932657 2.231991 26.245439 -32.991740 -28.265536 3.200163 -19.810423 -30.830848 14.567547 -12.499609 0.427912 61.478391 -5.905206 3.333091 -13.049199 26.322028 -10.954150 6.262952 10.488590 -20.298457 
